<svg id="person" xmlns="http://www.w3.org/2000/svg" width="26.943" height="26.943" viewBox="0 0 26.943 26.943">
  <g id="petak">
    <path id="Path_3767" data-name="Path 3767" d="M0,0H26.943V26.943H0Z" fill="none"/>
  </g>
  <g id="_x31_2" transform="translate(0.842 0.842)">
    <g id="Group_1179" data-name="Group 1179" transform="translate(3.368)">
      <g id="Group_1178" data-name="Group 1178">
        <path id="Path_3768" data-name="Path 3768" d="M11.736,14.472a6.736,6.736,0,1,1,6.736-6.736A6.744,6.744,0,0,1,11.736,14.472Zm0-11.788a5.052,5.052,0,1,0,5.052,5.052A5.057,5.057,0,0,0,11.736,2.684Z" transform="translate(-5 -1)"/>
      </g>
    </g>
    <g id="Group_1180" data-name="Group 1180" transform="translate(0 11.788)">
      <path id="Path_3769" data-name="Path 3769" d="M15.025,26.788H2.684V25.1A8.415,8.415,0,0,1,16.44,18.6l1.191-1.191A10.092,10.092,0,0,0,1,25.1v3.368H16.709Z" transform="translate(-1 -15)"/>
    </g>
    <g id="Group_1181" data-name="Group 1181" transform="translate(15.114 15.115)">
      <path id="Path_3770" data-name="Path 3770" d="M29.1,24.867V23.183H27.283a3.316,3.316,0,0,0-.36-.867L28.2,21.035l-1.191-1.191-1.288,1.288a3.384,3.384,0,0,0-.859-.34V18.952H23.182v1.84a3.359,3.359,0,0,0-.86.34l-1.288-1.288-1.191,1.191,1.281,1.281a3.332,3.332,0,0,0-.36.867H18.951v1.684h1.813a3.32,3.32,0,0,0,.36.866l-1.281,1.281L21.033,28.2l1.281-1.281a3.332,3.332,0,0,0,.867.36V29.1h1.684V27.283a3.32,3.32,0,0,0,.866-.36L27.012,28.2,28.2,27.014l-1.281-1.281a3.308,3.308,0,0,0,.36-.866Zm-6.766-.842a1.694,1.694,0,1,1,2.891,1.2,1.729,1.729,0,0,1-2.394,0A1.683,1.683,0,0,1,22.33,24.025Z" transform="translate(-18.951 -18.952)"/>
    </g>
  </g>
</svg>
