<svg xmlns="http://www.w3.org/2000/svg" width="27.568" height="27.568" viewBox="0 0 27.568 27.568">
  <g id="Group_786" data-name="Group 786" transform="translate(-2.25 -1.5)">
    <path id="Path_3701" data-name="Path 3701" d="M19.608,4.292a1.021,1.021,0,1,0,0-2.042H15.462c-2.5,0-4.46,0-6.015.168a7.928,7.928,0,0,0-3.97,1.327A7.828,7.828,0,0,0,3.745,5.477a7.928,7.928,0,0,0-1.327,3.97C2.25,11,2.25,12.962,2.25,15.462v.123c0,2.5,0,4.46.168,6.015a7.928,7.928,0,0,0,1.327,3.97A7.827,7.827,0,0,0,5.477,27.3a7.927,7.927,0,0,0,3.97,1.327c1.555.168,3.515.168,6.015.168h.123c2.5,0,4.46,0,6.015-.168a7.928,7.928,0,0,0,3.97-1.327A7.826,7.826,0,0,0,27.3,25.571a7.928,7.928,0,0,0,1.327-3.97c.168-1.555.168-3.515.168-6.015V11.439a1.021,1.021,0,1,0-2.042,0v4.084c0,2.575,0,4.425-.157,5.857a5.943,5.943,0,0,1-.948,2.99,5.783,5.783,0,0,1-1.28,1.28,5.943,5.943,0,0,1-2.99.948c-1.432.155-3.282.157-5.857.157s-4.425,0-5.857-.157a5.943,5.943,0,0,1-2.99-.948A5.785,5.785,0,0,1,5.4,24.37a5.942,5.942,0,0,1-.948-2.99c-.155-1.432-.157-3.282-.157-5.857s0-4.425.157-5.857A5.942,5.942,0,0,1,5.4,6.677,5.786,5.786,0,0,1,6.677,5.4a5.942,5.942,0,0,1,2.99-.948c1.432-.155,3.281-.157,5.857-.157Z" transform="translate(0 0.271)" fill="currentColor"/>
    <path id="Path_3702" data-name="Path 3702" d="M6.354,16.744a1.021,1.021,0,1,0,1.833.9l1.988-4.053a1.622,1.622,0,0,1,2.957.1,3.664,3.664,0,0,0,6.681.226L21.8,9.864a1.021,1.021,0,0,0-1.834-.9L17.98,13.017a1.622,1.622,0,0,1-2.957-.1,3.664,3.664,0,0,0-6.681-.226Z" transform="translate(1.446 2.491)" fill="currentColor"/>
    <path id="Path_3703" data-name="Path 3703" d="M17.5,4.9a3.4,3.4,0,1,0,3.4-3.4A3.4,3.4,0,0,0,17.5,4.9Zm2.042,0A1.361,1.361,0,1,0,20.9,3.542,1.361,1.361,0,0,0,19.542,4.9Z" transform="translate(5.511)" fill="currentColor" fill-rule="evenodd"/>
  </g>
</svg>
