<svg xmlns="http://www.w3.org/2000/svg" width="21.734" height="24.4" viewBox="0 0 21.734 24.4">
  <g id="user_21_" data-name="user(21)" transform="translate(-3.53 -2)">
    <path id="Path_3754" data-name="Path 3754" d="M25.264,20.954A8.987,8.987,0,0,0,18.3,12.213a5.856,5.856,0,1,0-7.808,0A8.987,8.987,0,0,0,3.53,20.954a.868.868,0,0,0,.871.871H7.913a7.185,7.185,0,1,1,14.266,0h2.213A.868.868,0,0,0,25.264,20.954Z" fill="currentColor"/>
    <path id="Path_3755" data-name="Path 3755" d="M15.947,28.394A5.442,5.442,0,1,0,10.5,22.948,5.447,5.447,0,0,0,15.947,28.394Zm-2.37-6.231a.868.868,0,0,1,1.229,0l.645.645,1.612-1.6a.869.869,0,0,1,1.229,1.229l-2.222,2.222a.853.853,0,0,1-1.229,0l-1.264-1.264A.868.868,0,0,1,13.576,22.163Z" transform="translate(-0.896 -1.994)" fill="currentColor"/>
  </g>
</svg>
