<svg xmlns="http://www.w3.org/2000/svg" xmlns:xlink="http://www.w3.org/1999/xlink" width="27.922" height="27.922" viewBox="0 0 27.922 27.922">
  <defs>
    <clipPath id="clip-path">
      <path id="path927" d="M0-682.665H27.922v27.922H0Z" transform="translate(0 682.665)"/>
    </clipPath>
  </defs>
  <g id="calendar_10_" data-name="calendar(10)" transform="translate(0 -0.002)">
    <g id="g921" transform="translate(0 0.002)">
      <g id="g923">
        <g id="g925" clip-path="url(#clip-path)">
          <g id="g931" transform="translate(1.091 3.272)">
            <path id="path933" d="M-291.565-552.439h-9.162A3.272,3.272,0,0,1-304-555.711v-17.015A3.272,3.272,0,0,1-300.727-576h19.2a3.272,3.272,0,0,1,3.272,3.272v7.744" transform="translate(303.999 575.999)" fill="none" stroke="#000" stroke-linecap="round" stroke-linejoin="round" stroke-miterlimit="10" stroke-width="2"/>
          </g>
          <g id="g935" transform="translate(5.726 10.362)">
            <path id="path937" d="M-25.576,0h0a1.091,1.091,0,0,0-1.091,1.091,1.091,1.091,0,0,0,1.091,1.091,1.091,1.091,0,0,0,1.091-1.091A1.091,1.091,0,0,0-25.576,0" transform="translate(26.667 0)"/>
          </g>
          <g id="g939" transform="translate(10.471 10.362)">
            <path id="path941" d="M-25.576,0h0a1.091,1.091,0,0,0-1.091,1.091,1.091,1.091,0,0,0,1.091,1.091,1.091,1.091,0,0,0,1.091-1.091A1.091,1.091,0,0,0-25.576,0" transform="translate(26.667 0)"/>
          </g>
          <g id="g943" transform="translate(15.216 10.362)">
            <path id="path945" d="M-25.576,0h0a1.091,1.091,0,0,0-1.091,1.091,1.091,1.091,0,0,0,1.091,1.091,1.091,1.091,0,0,0,1.091-1.091A1.091,1.091,0,0,0-25.576,0" transform="translate(26.667 0)"/>
          </g>
          <g id="g947" transform="translate(19.96 10.362)">
            <path id="path949" d="M-25.576,0h0a1.091,1.091,0,0,0-1.091,1.091,1.091,1.091,0,0,0,1.091,1.091,1.091,1.091,0,0,0,1.091-1.091A1.091,1.091,0,0,0-25.576,0" transform="translate(26.667 0)"/>
          </g>
          <g id="g951" transform="translate(5.726 15.106)">
            <path id="path953" d="M-51.152-25.576h0a1.091,1.091,0,0,0-1.091-1.091,1.091,1.091,0,0,0-1.091,1.091,1.091,1.091,0,0,0,1.091,1.091,1.091,1.091,0,0,0,1.091-1.091" transform="translate(53.333 26.667)"/>
          </g>
          <g id="g955" transform="translate(5.726 19.851)">
            <path id="path957" d="M-51.152-25.576h0a1.091,1.091,0,0,0-1.091-1.091,1.091,1.091,0,0,0-1.091,1.091,1.091,1.091,0,0,0,1.091,1.091,1.091,1.091,0,0,0,1.091-1.091" transform="translate(53.333 26.667)"/>
          </g>
          <g id="g959" transform="translate(10.471 15.106)">
            <path id="path961" d="M-51.152-25.576h0a1.091,1.091,0,0,0-1.091-1.091,1.091,1.091,0,0,0-1.091,1.091,1.091,1.091,0,0,0,1.091,1.091,1.091,1.091,0,0,0,1.091-1.091" transform="translate(53.333 26.667)"/>
          </g>
          <g id="g963" transform="translate(10.471 19.851)">
            <path id="path965" d="M-51.152-25.576h0a1.091,1.091,0,0,0-1.091-1.091,1.091,1.091,0,0,0-1.091,1.091,1.091,1.091,0,0,0,1.091,1.091,1.091,1.091,0,0,0,1.091-1.091" transform="translate(53.333 26.667)"/>
          </g>
          <g id="g967" transform="translate(10.471 10.362)">
            <path id="path969" d="M-25.576,0h0a1.091,1.091,0,0,0-1.091,1.091,1.091,1.091,0,0,0,1.091,1.091,1.091,1.091,0,0,0,1.091-1.091A1.091,1.091,0,0,0-25.576,0" transform="translate(26.667 0)"/>
          </g>
          <g id="g971" transform="translate(10.471 15.106)">
            <path id="path973" d="M-51.152-25.576h0a1.091,1.091,0,0,0-1.091-1.091,1.091,1.091,0,0,0-1.091,1.091,1.091,1.091,0,0,0,1.091,1.091,1.091,1.091,0,0,0,1.091-1.091" transform="translate(53.333 26.667)"/>
          </g>
          <g id="g975" transform="translate(10.471 19.851)">
            <path id="path977" d="M-51.152-25.576h0a1.091,1.091,0,0,0-1.091-1.091,1.091,1.091,0,0,0-1.091,1.091,1.091,1.091,0,0,0,1.091,1.091,1.091,1.091,0,0,0,1.091-1.091" transform="translate(53.333 26.667)"/>
          </g>
          <g id="g979" transform="translate(6.817 1.091)">
            <path id="path981" d="M0,0V4.363" fill="none" stroke="#000" stroke-linecap="round" stroke-linejoin="round" stroke-miterlimit="10" stroke-width="2"/>
          </g>
          <g id="g983" transform="translate(21.051 1.091)">
            <path id="path985" d="M0-102.3v-4.363" transform="translate(0 106.666)" fill="none" stroke="#000" stroke-linecap="round" stroke-linejoin="round" stroke-miterlimit="10" stroke-width="2"/>
          </g>
          <g id="g987" transform="translate(15.216 15.106)">
            <path id="path989" d="M-51.152-25.576h0a1.091,1.091,0,0,0-1.091-1.091,1.091,1.091,0,0,0-1.091,1.091,1.091,1.091,0,0,0,1.091,1.091,1.091,1.091,0,0,0,1.091-1.091" transform="translate(53.333 26.667)"/>
          </g>
          <g id="g991" transform="translate(19.96 15.106)">
            <path id="path993" d="M-51.152-25.576h0a1.091,1.091,0,0,0-1.091-1.091,1.091,1.091,0,0,0-1.091,1.091,1.091,1.091,0,0,0,1.091,1.091,1.091,1.091,0,0,0,1.091-1.091" transform="translate(53.333 26.667)"/>
          </g>
          <g id="g995" transform="translate(13.907 1.091)">
            <path id="path997" d="M0,0V4.363" transform="translate(0)" fill="none" stroke="#000" stroke-linecap="round" stroke-linejoin="round" stroke-miterlimit="10" stroke-width="2"/>
          </g>
          <g id="g999" transform="translate(15.436 18.651)">
            <path id="path1001" d="M0-101.1l3.481,3.4A1.714,1.714,0,0,0,6-97.868l5.4-7.54" transform="translate(0 105.408)" fill="none" stroke="#000" stroke-linecap="round" stroke-linejoin="round" stroke-miterlimit="10" stroke-width="2"/>
          </g>
        </g>
      </g>
    </g>
  </g>
</svg>
