<svg id="calendar" xmlns="http://www.w3.org/2000/svg" width="20" height="20" viewBox="0 0 20 20">
  <path id="Path_3698" data-name="Path 3698" d="M0,17.5a4.172,4.172,0,0,0,4.167,4.167H15.833A4.172,4.172,0,0,0,20,17.5V10H0Zm14.167-3.75A1.25,1.25,0,1,1,12.917,15,1.25,1.25,0,0,1,14.167,13.75ZM10,13.75A1.25,1.25,0,1,1,8.75,15,1.25,1.25,0,0,1,10,13.75Zm-4.167,0A1.25,1.25,0,1,1,4.583,15a1.25,1.25,0,0,1,1.25-1.25Z" transform="translate(0 -1.667)" fill="currentColor"/>
  <path id="Path_3699" data-name="Path 3699" d="M15.833,1.667H15V.833a.833.833,0,0,0-1.667,0v.833H6.667V.833A.833.833,0,1,0,5,.833v.833H4.167A4.172,4.172,0,0,0,0,5.833v.833H20V5.833A4.172,4.172,0,0,0,15.833,1.667Z" fill="currentColor"/>
</svg>
