<svg xmlns="http://www.w3.org/2000/svg" width="19.5" height="21.5" viewBox="0 0 19.5 21.5">
  <g id="Group_990" data-name="Group 990" transform="translate(-2.25 -1.25)">
    <path id="Path_3734" fill="currentColor" data-name="Path 3734" d="M8,5.75A.755.755,0,0,1,7.25,5V2a.75.75,0,0,1,1.5,0V5A.755.755,0,0,1,8,5.75Z"/>
    <path id="Path_3735" fill="currentColor" data-name="Path 3735" d="M16,5.75A.755.755,0,0,1,15.25,5V2a.75.75,0,0,1,1.5,0V5A.755.755,0,0,1,16,5.75Z"/>
    <path id="Path_3736" fill="currentColor" data-name="Path 3736" d="M8.5,14.5a1,1,0,0,1-.38-.08.96.96,0,0,1-.62-.92,1,1,0,0,1,.08-.38,1.155,1.155,0,0,1,.21-.33,1.032,1.032,0,0,1,.33-.21,1.021,1.021,0,0,1,1.09.21,1.052,1.052,0,0,1,.29.71,1.5,1.5,0,0,1-.02.2.636.636,0,0,1-.06.18.757.757,0,0,1-.09.18,1.576,1.576,0,0,1-.12.15,1.052,1.052,0,0,1-.71.29Z"/>
    <path id="Path_3737" fill="currentColor" data-name="Path 3737" d="M12,14.5a1,1,0,0,1-.38-.08A.96.96,0,0,1,11,13.5a1,1,0,0,1,.08-.38,1.155,1.155,0,0,1,.21-.33,1.032,1.032,0,0,1,.33-.21,1,1,0,0,1,1.09.21,1.052,1.052,0,0,1,.29.71,1.5,1.5,0,0,1-.02.2.636.636,0,0,1-.06.18.757.757,0,0,1-.09.18,1.576,1.576,0,0,1-.12.15,1.052,1.052,0,0,1-.71.29Z"/>
    <path id="Path_3738" fill="currentColor" data-name="Path 3738" d="M15.5,14.5a1,1,0,0,1-.38-.08,1.032,1.032,0,0,1-.33-.21l-.12-.15a.757.757,0,0,1-.09-.18.636.636,0,0,1-.06-.18,1.5,1.5,0,0,1-.02-.2,1.052,1.052,0,0,1,.29-.71,1.032,1.032,0,0,1,.33-.21,1,1,0,0,1,1.09.21,1.052,1.052,0,0,1,.29.71,1.5,1.5,0,0,1-.02.2.636.636,0,0,1-.06.18.757.757,0,0,1-.09.18,1.576,1.576,0,0,1-.12.15,1.052,1.052,0,0,1-.71.29Z"/>
    <path id="Path_3739" fill="currentColor" data-name="Path 3739" d="M8.5,18a1,1,0,0,1-.38-.08,1.155,1.155,0,0,1-.33-.21A1.052,1.052,0,0,1,7.5,17a1,1,0,0,1,.08-.38.933.933,0,0,1,.21-.33A1,1,0,1,1,8.5,18Z"/>
    <path id="Path_3740" fill="currentColor" data-name="Path 3740" d="M12,18a.99.99,0,0,1-1-1,1,1,0,0,1,.08-.38.933.933,0,0,1,.21-.33,1.047,1.047,0,0,1,1.42,0,.933.933,0,0,1,.21.33A1,1,0,0,1,13,17a.99.99,0,0,1-1,1Z"/>
    <path id="Path_3741" fill="currentColor" data-name="Path 3741" d="M15.5,18a1.052,1.052,0,0,1-.71-.29.933.933,0,0,1-.21-.33.942.942,0,0,1,0-.76.933.933,0,0,1,.21-.33,1,1,0,0,1,.9-.27.6.6,0,0,1,.19.06.757.757,0,0,1,.18.09,1.576,1.576,0,0,1,.15.12A1,1,0,0,1,15.5,18Z"/>
    <path id="Path_3742" fill="currentColor" data-name="Path 3742" d="M20.5,9.84H3.5a.75.75,0,0,1,0-1.5h17a.75.75,0,0,1,0,1.5Z"/>
    <path id="Path_3743" fill="currentColor" data-name="Path 3743" d="M16,22.75H8c-3.65,0-5.75-2.1-5.75-5.75V8.5c0-3.65,2.1-5.75,5.75-5.75h8c3.65,0,5.75,2.1,5.75,5.75V17C21.75,20.65,19.65,22.75,16,22.75ZM8,4.25c-2.86,0-4.25,1.39-4.25,4.25V17c0,2.86,1.39,4.25,4.25,4.25h8c2.86,0,4.25-1.39,4.25-4.25V8.5c0-2.86-1.39-4.25-4.25-4.25Z"/>
  </g>
</svg>
