<svg id="Group_813" data-name="Group 813" xmlns="http://www.w3.org/2000/svg" width="27.568" height="27.568" viewBox="0 0 27.568 27.568">
  <g id="Group_810" data-name="Group 810" transform="translate(12.716 6.396)">
    <g id="Group_809" data-name="Group 809">
      <path id="Path_3712" data-name="Path 3712" d="M242.148,128.6l-3.844-2.883v-5.872a1.068,1.068,0,1,0-2.135,0v6.406a1.066,1.066,0,0,0,.427.854l4.271,3.2a1.068,1.068,0,0,0,1.281-1.708Z" transform="translate(-236.169 -118.779)"/>
    </g>
  </g>
  <g id="Group_812" data-name="Group 812">
    <g id="Group_811" data-name="Group 811">
      <path id="Path_3713" data-name="Path 3713" d="M13.784,0A13.784,13.784,0,1,0,27.568,13.784,13.8,13.8,0,0,0,13.784,0Zm0,25.433A11.649,11.649,0,1,1,25.433,13.784,11.663,11.663,0,0,1,13.784,25.433Z"/>
    </g>
  </g>
</svg>
