<svg id="Group_814" data-name="Group 814" xmlns="http://www.w3.org/2000/svg" width="24.924" height="24.924" viewBox="0 0 24.924 24.924">
  <path id="Path_3715" data-name="Path 3715" d="M12.462,24.924A12.462,12.462,0,1,0,0,12.462,12.486,12.486,0,0,0,12.462,24.924Z" fill="#f34235" fill-rule="evenodd"/>
  <path id="Path_3716" data-name="Path 3716" d="M134.844,98.12H124.1a.221.221,0,0,0-.221.233l.564,10.889a.91.91,0,0,0,.91.864h8.233a.91.91,0,0,0,.91-.864l.564-10.889a.221.221,0,0,0-.221-.233Zm-8.876,2.2a.558.558,0,0,1,.541-.572.56.56,0,0,1,.573.542l.205,7.644a.551.551,0,0,1-.152.4.557.557,0,0,1-.389.174h-.016a.558.558,0,0,1-.556-.542Zm2.949,7.62v-7.645a.557.557,0,1,1,1.114,0v7.645a.557.557,0,1,1-1.114,0Zm3.858.023a.558.558,0,0,1-.556.542H132.2a.558.558,0,0,1-.541-.573l.205-7.643a.558.558,0,0,1,.569-.542h0a.558.558,0,0,1,.541.572Zm3.174-11.542V97H123v-.586a.587.587,0,0,1,.587-.587h4.259a.221.221,0,0,0,.22-.2,1.417,1.417,0,0,1,2.817,0,.221.221,0,0,0,.22.2h4.259A.587.587,0,0,1,135.949,96.417Z" transform="translate(-117.012 -89.776)" fill="#fff"/>
</svg>
