<svg xmlns="http://www.w3.org/2000/svg" width="168" height="168" viewBox="0 0 168 168">
  <g id="Group_817" data-name="Group 817" transform="translate(-16 -16)">
    <circle id="Ellipse_103" data-name="Ellipse 103" cx="84" cy="84" r="84" transform="translate(16 16)" fill="#ff5a54"/>
    <path id="Path_3717" data-name="Path 3717" d="M257.072,154.045c.006.4.015.8.015,1.2a84,84,0,0,1-84,84c-.441,0-.879-.01-1.318-.017L140.737,208.2a5.386,5.386,0,0,1-1.873-3.772l-4.339-71.161h.544l-6.113-6.113a1.745,1.745,0,0,1-.513-1.237V116.9a5.409,5.409,0,0,1,5.4-5.4h22.75v-4.415A6.1,6.1,0,0,1,162.679,101H183.5a6.075,6.075,0,0,1,4.5,2l8.5,8.5h15.83a5.392,5.392,0,0,1,4.164,1.968Z" transform="translate(-73.087 -55.249)" fill="#db3a3c" fill-rule="evenodd"/>
    <path id="Path_3718" data-name="Path 3718" d="M155.56,147.7a2.8,2.8,0,0,1,2.8,2.8v35.555a2.8,2.8,0,0,1-5.6,0V150.5a2.8,2.8,0,0,1,2.8-2.8Zm14.727,2.8a2.8,2.8,0,1,1,5.6,0v35.555a2.8,2.8,0,0,1-5.6,0Zm17.527,0a2.8,2.8,0,1,1,5.6,0v35.555a2.8,2.8,0,0,1-5.6,0Zm-53.289-17.235,4.339,71.161a5.393,5.393,0,0,0,5.389,5.07h57.668a5.393,5.393,0,0,0,5.389-5.07l4.339-71.161ZM133.84,111.5h22.75v-4.415A6.1,6.1,0,0,1,162.679,101h20.816a6.1,6.1,0,0,1,6.089,6.089V111.5h22.749a5.409,5.409,0,0,1,5.4,5.4v9.016a1.753,1.753,0,0,1-1.75,1.75H130.191a1.753,1.753,0,0,1-1.75-1.75V116.9A5.41,5.41,0,0,1,133.84,111.5Z" transform="translate(-73.087 -55.25)" fill="#fff" fill-rule="evenodd"/>
  </g>
</svg>
