<svg xmlns="http://www.w3.org/2000/svg" width="22.375" height="22" viewBox="0 0 22.375 22">
  <g id="Group_808" data-name="Group 808" transform="translate(0 -4.296)">
    <g id="Group_805" data-name="Group 805" transform="translate(0 5.643)">
      <g id="Group_804" data-name="Group 804" transform="translate(0 0)">
        <path id="Path_3710" data-name="Path 3710" d="M17.391,48.028A1.086,1.086,0,0,0,16.3,49.115v3.414a1.087,1.087,0,0,1-1.087,1.087H3.261a1.087,1.087,0,0,1-1.087-1.087V38.4a1.087,1.087,0,0,1,1.087-1.087H9.576a1.087,1.087,0,0,0,0-2.174H3.261A3.265,3.265,0,0,0,0,38.4v14.13A3.265,3.265,0,0,0,3.261,55.79H15.217a3.264,3.264,0,0,0,3.261-3.261V49.115A1.086,1.086,0,0,0,17.391,48.028Z" transform="translate(0 -35.138)" fill="currentColor"/>
      </g>
    </g>
    <g id="Group_807" data-name="Group 807" transform="translate(6.261 4.296)">
      <g id="Group_806" data-name="Group 806" transform="translate(0 0)">
        <path id="Path_3711" data-name="Path 3711" d="M158.164,5.505a4.184,4.184,0,0,0-5.875-.01l-7.359,7.359a5.673,5.673,0,0,0-1.665,4.028v2.435a1.086,1.086,0,0,0,1.087,1.087h2.435a5.673,5.673,0,0,0,4.029-1.666l7.349-7.349A4.169,4.169,0,0,0,158.164,5.505ZM149.28,17.2a3.512,3.512,0,0,1-2.493,1.03h-1.348V16.882a3.511,3.511,0,0,1,1.029-2.492l4.851-4.851,2.811,2.811Zm7.347-7.347-.96.96L152.856,8l.96-.96a1.988,1.988,0,0,1,2.811,2.811Z" transform="translate(-143.265 -4.296)" fill="currentColor"/>
      </g>
    </g>
  </g>
</svg>
