<svg xmlns="http://www.w3.org/2000/svg" width="18.305" height="14.169" viewBox="0 0 18.305 14.169">
  <path id="mail_2_" data-name="mail(2)" d="M27.349,78.693l5.5,5.5a3.1,3.1,0,0,0,4.362,0l5.5-5.5A.125.125,0,0,0,42.7,78.5a3.451,3.451,0,0,0-1.979-.623H29.345a3.451,3.451,0,0,0-1.979.623A.125.125,0,0,0,27.349,78.693Zm-1.47,2.652a3.44,3.44,0,0,1,.4-1.6.125.125,0,0,1,.2-.03l5.432,5.432a4.425,4.425,0,0,0,6.251,0l5.432-5.432a.125.125,0,0,1,.2.03,3.44,3.44,0,0,1,.4,1.6V88.58a3.47,3.47,0,0,1-3.466,3.466H29.345a3.47,3.47,0,0,1-3.466-3.466Z" transform="translate(-25.879 -77.878)" fill="#45a300" fill-rule="evenodd"/>
</svg>
