<svg xmlns="http://www.w3.org/2000/svg" width="23.274" height="24.975" viewBox="0 0 23.274 24.975">
  <g id="Group_789" data-name="Group 789" transform="translate(-2.953 -2)">
    <path id="Path_3705" data-name="Path 3705" d="M9.822,2a.891.891,0,0,0-.892.892V3.7h-1.4A4.585,4.585,0,0,0,2.953,8.28V22.395a4.585,4.585,0,0,0,4.58,4.58H21.647a4.585,4.585,0,0,0,4.58-4.58V8.28A4.585,4.585,0,0,0,21.647,3.7h-1.4V2.892a.892.892,0,1,0-1.784,0V3.7H10.714V2.892A.891.891,0,0,0,9.822,2Zm8.644,3.485v.808a.892.892,0,1,0,1.784,0V5.485h1.4a2.8,2.8,0,0,1,2.8,2.8V22.395a2.8,2.8,0,0,1-2.8,2.8H7.533a2.8,2.8,0,0,1-2.8-2.8V8.28a2.8,2.8,0,0,1,2.8-2.8h1.4v.808a.892.892,0,1,0,1.784,0V5.485Z" fill="currentColor"/>
    <path id="Path_3706" data-name="Path 3706" d="M8.114,14.32A2.291,2.291,0,0,0,8.7,16.684L10.047,18a.523.523,0,0,1,.15.463l-.318,1.855a2.307,2.307,0,0,0,3.347,2.432l1.666-.876a.521.521,0,0,1,.486,0l1.667.877a2.307,2.307,0,0,0,3.347-2.432l-.318-1.857A.523.523,0,0,1,20.225,18l1.348-1.314a2.307,2.307,0,0,0-1.279-3.935l-1.864-.271a.527.527,0,0,1-.394-.287L17.2,10.5a2.307,2.307,0,0,0-4.137,0l-.833,1.688a.527.527,0,0,1-.394.287l-1.864.271A2.291,2.291,0,0,0,8.114,14.32Zm5.719-1.338.833-1.688a.524.524,0,0,1,.939,0l.833,1.688a2.305,2.305,0,0,0,1.737,1.262l1.864.271a.523.523,0,0,1,.289.892L18.98,16.72a2.3,2.3,0,0,0-.664,2.043l.318,1.857a.524.524,0,0,1-.759.551l-1.666-.876a2.3,2.3,0,0,0-2.148,0l-1.665.875a.523.523,0,0,1-.76-.551l.318-1.855a2.3,2.3,0,0,0-.663-2.043L9.943,15.406a.522.522,0,0,1,.289-.891l1.864-.271A2.305,2.305,0,0,0,13.833,12.982Z" transform="translate(-0.545 -0.78)" fill="currentColor"/>
  </g>
</svg>
