<svg xmlns="http://www.w3.org/2000/svg" width="30.813" height="21.998" viewBox="0 0 30.813 21.998">
  <g id="Layer_16" data-name="Layer 16" transform="translate(0 0)">
    <path id="Path_2" data-name="Path 2" d="M25.263,106.719,5.555,87.012l0,0a1.144,1.144,0,1,0-1.612,1.625l1.725,1.725A20.019,20.019,0,0,0,.357,95.714a2.059,2.059,0,0,0,0,2.31,18.382,18.382,0,0,0,15.052,8.432,16.346,16.346,0,0,0,5.444-.912l2.793,2.793a1.143,1.143,0,1,0,1.621-1.612Zm-9.853-3.369A6.486,6.486,0,0,1,9.5,94.191l1.8,1.8a4.2,4.2,0,0,0,4.978,4.978l1.8,1.8A6.453,6.453,0,0,1,15.409,103.35Z" transform="translate(-0.003 -86.676)" fill="currentColor"/>
    <path id="Path_3" data-name="Path 3" d="M186.036,105.079a18.378,18.378,0,0,0-15.052-8.435,16.346,16.346,0,0,0-5.444.912l2.768,2.768a6.486,6.486,0,0,1,8.584,8.584l3.836,3.836a20.01,20.01,0,0,0,5.308-5.356A2.059,2.059,0,0,0,186.036,105.079Z" transform="translate(-155.578 -96.044)" fill="currentColor"/>
    <path id="Path_4" data-name="Path 4" d="M242.39,186.26a4.207,4.207,0,0,0-.872.091l4.977,4.977a4.2,4.2,0,0,0-4.106-5.068Z" transform="translate(-226.984 -180.267)" fill="currentColor"/>
  </g>
</svg>
