<svg xmlns="http://www.w3.org/2000/svg" width="31.273" height="20.216" viewBox="0 0 31.273 20.216">
  <g id="Group_1115" data-name="Group 1115" transform="translate(-273.186 -41.667)">
    <g id="Group_8" data-name="Group 8" transform="translate(273.186 41.668)">
      <ellipse id="Ellipse_1" data-name="Ellipse 1" cx="4.815" cy="4.815" rx="4.815" ry="4.815" transform="translate(10.823 5.295)" fill="currentColor"/>
      <path id="Path_1" data-name="Path 1" d="M30.794,100.643c-3.7-4.472-9.3-8.777-15.157-8.777S4.179,96.174.48,100.643a2.093,2.093,0,0,0,0,2.667A31.341,31.341,0,0,0,5.963,108.5c6.557,4.773,12.777,4.784,19.349,0a31.341,31.341,0,0,0,5.483-5.188A2.094,2.094,0,0,0,30.794,100.643ZM15.637,95.236a6.74,6.74,0,1,1-6.74,6.74A6.748,6.748,0,0,1,15.637,95.236Z" transform="translate(0 -91.867)" fill="currentColor"/>
    </g>
  </g>
</svg>
