<svg id="Group_776" data-name="Group 776" xmlns="http://www.w3.org/2000/svg" width="23" height="23" viewBox="0 0 23 23">
  <path id="Path_3695" data-name="Path 3695" d="M11.5,0A11.5,11.5,0,1,0,23,11.5,11.513,11.513,0,0,0,11.5,0Zm0,20.909A9.409,9.409,0,1,1,20.909,11.5,9.42,9.42,0,0,1,11.5,20.909Z" fill="currentColor"/>
  <path id="Path_3696" data-name="Path 3696" d="M146.4,70a1.394,1.394,0,1,0,1.394,1.395A1.4,1.4,0,0,0,146.4,70Z" transform="translate(-134.896 -65.121)" fill="currentColor"/>
  <path id="Path_3697" data-name="Path 3697" d="M151.045,140A1.045,1.045,0,0,0,150,141.045v6.273a1.045,1.045,0,1,0,2.091,0v-6.273A1.045,1.045,0,0,0,151.045,140Z" transform="translate(-139.545 -130.242)" fill="currentColor"/>
</svg>
