<svg xmlns="http://www.w3.org/2000/svg" width="27.882" height="28.001" viewBox="0 0 27.882 28.001">
  <path id="Path_3714" data-name="Path 3714" d="M25.394,12.286H20.021l1.214-5.468a3.6,3.6,0,0,0-1.353-3.656l-.836-.627a2.664,2.664,0,0,0-3.912.8,66.481,66.481,0,0,1-5.632,8.6,1,1,0,0,0-.9-.573H3.059a1,1,0,0,0-1,1V28.076a1,1,0,0,0,1,1H8.6a.988.988,0,0,0,.973-.864A5.544,5.544,0,0,0,13.638,30h5.49a5.507,5.507,0,0,0,4.592-2.458l5.458-8.187a4.548,4.548,0,0,0-3.784-7.069ZM7.6,27.076H4.059V13.361H7.6Zm19.909-8.829-5.458,8.186A3.513,3.513,0,0,1,19.128,28h-5.49a3.536,3.536,0,0,1-2.816-1.408L9.605,24.97V14.7c2.089-1.763,5.063-6.534,7.263-10.369a.651.651,0,0,1,.441-.318.667.667,0,0,1,.538.12l.835.627a1.6,1.6,0,0,1,.6,1.624L17.8,13.069a1,1,0,0,0,.976,1.217H25.4a2.549,2.549,0,0,1,2.12,3.961Z" transform="translate(-2.059 -1.999)" fill="#111"/>
</svg>
