<svg xmlns="http://www.w3.org/2000/svg" width="17.1" height="23.5" viewBox="0 0 17.1 23.5">
  <g id="directions" transform="translate(0.05 0.25)">
    <path id="Path_3725" data-name="Path 3725" d="M8.5,22.9h0A1.478,1.478,0,0,1,7.2,22L1.3,12.2a7.561,7.561,0,0,1-1-3.9,8.2,8.2,0,0,1,16.4,0,7.561,7.561,0,0,1-1,3.9h0L9.8,22C9.4,22.6,9,22.9,8.5,22.9ZM2.1,11.8,8,21.5a.664.664,0,0,0,.5.4h0c.1,0,.3-.1.5-.4l5.9-9.7a6.65,6.65,0,0,0,.9-3.4,7.2,7.2,0,0,0-14.4,0A5.982,5.982,0,0,0,2.1,11.8ZM8.5,13A4.5,4.5,0,1,1,13,8.5,4.481,4.481,0,0,1,8.5,13Zm0-8.1A3.478,3.478,0,0,0,5,8.4,3.564,3.564,0,0,0,8.5,12,3.5,3.5,0,0,0,12,8.4,3.478,3.478,0,0,0,8.5,4.9Z" fill="currentColor" stroke="currentColor" stroke-width="0.7"/>
  </g>
</svg>
