<svg xmlns="http://www.w3.org/2000/svg" width="23" height="23.001" viewBox="0 0 23 23.001">
  <path id="Path_3700" data-name="Path 3700" d="M16.718,17.61v1.8A3.6,3.6,0,0,1,13.124,23H4.094A3.6,3.6,0,0,1,.5,19.407V3.594A3.6,3.6,0,0,1,4.094,0h9.03a3.6,3.6,0,0,1,3.594,3.594v1.8a.9.9,0,1,1-1.8,0v-1.8a1.8,1.8,0,0,0-1.8-1.8H4.094a1.8,1.8,0,0,0-1.8,1.8V19.407a1.8,1.8,0,0,0,1.8,1.8h9.03a1.8,1.8,0,0,0,1.8-1.8v-1.8a.9.9,0,1,1,1.8,0Zm6.126-7.653L20.831,7.945a.9.9,0,0,0-1.271,1.271l1.431,1.431H10.2a.9.9,0,1,0,0,1.8H20.992l-1.431,1.431a.9.9,0,1,0,1.271,1.271l2.012-2.012A2.249,2.249,0,0,0,22.843,9.957Zm0,0" transform="translate(-0.5)" fill="currentColor"/>
</svg>
