<svg xmlns="http://www.w3.org/2000/svg" width="23.683" height="19.224" viewBox="0 0 23.683 19.224">
  <g id="Group_793" data-name="Group 793" transform="translate(0 -48.2)">
    <path id="Path_3708" data-name="Path 3708" d="M22.989,261.154H21.4a4.781,4.781,0,0,0-9.462,0H.694a.694.694,0,1,0,0,1.388H11.941a4.781,4.781,0,0,0,9.462,0h1.586a.694.694,0,1,0,0-1.388Zm-6.317,4.087a3.394,3.394,0,1,1,3.394-3.394A3.4,3.4,0,0,1,16.672,265.242Z" transform="translate(0 -199.206)" fill="#111"/>
    <path id="Path_3709" data-name="Path 3709" d="M.694,53.675H2.28a4.781,4.781,0,0,0,9.462,0H22.989a.694.694,0,1,0,0-1.388H11.742a4.781,4.781,0,0,0-9.462,0H.694a.694.694,0,1,0,0,1.388Zm6.317-4.087a3.394,3.394,0,1,1-3.394,3.394A3.4,3.4,0,0,1,7.011,49.588Z" transform="translate(0)" fill="#111"/>
  </g>
</svg>
