<svg id="Send" xmlns="http://www.w3.org/2000/svg" width="50" height="34" viewBox="0 0 50 34">
  <path id="Path_226" data-name="Path 226" d="M17,0H33a17,17,0,0,1,0,34H0V17A17,17,0,0,1,17,0Z" fill="#dbdbdb"/>
  <g id="send-2" data-name="send" transform="translate(16.86 11.08)">
    <g id="Group_38" data-name="Group 38">
      <path id="Path_35" data-name="Path 35" d="M14.752,40.479,2.1,35.227A1.515,1.515,0,0,0,.048,37l1.126,4.417H6.69a.46.46,0,1,1,0,.919H1.175L.048,46.754A1.515,1.515,0,0,0,2.1,48.528l12.655-5.251a1.515,1.515,0,0,0,0-2.8Z" transform="translate(-0.001 -35.111)" fill="#fff"/>
    </g>
  </g>
</svg>
