<svg xmlns="http://www.w3.org/2000/svg" width="28.902" height="25" viewBox="0 0 28.902 25">
  <g id="replace" transform="translate(0 -34.553)">
    <path id="Path_3771" data-name="Path 3771" d="M135.16,52.753l-.752.752v-6.46a12.492,12.492,0,0,0-20.522-9.569l1.09,1.3a10.8,10.8,0,0,1,17.738,8.272V53.5l-.752-.752-1.2,1.2,2.8,2.8,2.8-2.8Z" transform="translate(-107.456)"/>
    <path id="Path_3772" data-name="Path 3772" d="M21.382,102.22A10.8,10.8,0,0,1,3.643,93.948v-6.46l.752.752,1.2-1.2-2.8-2.8L0,87.042l1.2,1.2.752-.752v6.46a12.492,12.492,0,0,0,20.522,9.569Z" transform="translate(0 -46.887)"/>
    <path id="Path_3773" data-name="Path 3773" d="M130.959,129.931h12.2a1.017,1.017,0,0,0,1.016-1v-2.542h-3.5v-3.342h-7.226v3.342h-3.5v2.542A1.017,1.017,0,0,0,130.959,129.931Zm4.179-5.192h3.838v1.648h-3.838Z" transform="translate(-122.606 -83.495)"/>
    <path id="Path_3774" data-name="Path 3774" d="M137.9,271.684v1.638H136.21v-1.638h-5.25a2.7,2.7,0,0,1-1.016-.2v5.174h14.228v-5.174a2.7,2.7,0,0,1-1.016.2Z" transform="translate(-122.606 -223.554)"/>
  </g>
</svg>
