<svg xmlns="http://www.w3.org/2000/svg" width="14.325" height="16.698" viewBox="0 0 14.325 16.698">
  <g id="Group_766" data-name="Group 766" transform="translate(-63.835 -32)">
    <path id="Path_3690" data-name="Path 3690" d="M77.859,43.529l-.182-.221c-.82-.992-1.316-1.59-1.316-4.4a5.694,5.694,0,0,0-1.033-3.541,4.863,4.863,0,0,0-2.089-1.533.112.112,0,0,1-.031-.025,2.254,2.254,0,0,0-4.419,0,.117.117,0,0,1-.03.024c-2.1.865-3.123,2.525-3.123,5.074,0,2.809-.5,3.407-1.316,4.4-.06.072-.12.145-.182.221a1.31,1.31,0,0,0-.173,1.4,1.393,1.393,0,0,0,1.28.785H76.756a1.391,1.391,0,0,0,1.274-.783A1.311,1.311,0,0,0,77.859,43.529Z" fill="#111"/>
    <path id="Path_3691" data-name="Path 3691" d="M187.748,433.789a2.984,2.984,0,0,0,2.625-1.57.149.149,0,0,0-.132-.219h-4.986a.149.149,0,0,0-.132.219A2.984,2.984,0,0,0,187.748,433.789Z" transform="translate(-116.751 -385.091)" fill="#111"/>
  </g>
</svg>
