<svg xmlns="http://www.w3.org/2000/svg" width="22.845" height="27.922" viewBox="0 0 22.845 27.922">
  <g id="bell_4_" data-name="bell(4)" transform="translate(-3 -1)">
    <path id="Path_3775" data-name="Path 3775" d="M12.538,23.538A2.538,2.538,0,0,0,15.077,21H10A2.538,2.538,0,0,0,12.538,23.538Z" transform="translate(1.884 5.384)"/>
    <path id="Path_3776" data-name="Path 3776" d="M25.749,23.062a1.269,1.269,0,0,0-.275-1.383l-2.166-2.166v-7.09A8.884,8.884,0,0,0,15.692,3.64V2.269a1.269,1.269,0,1,0-2.538,0V3.64a8.884,8.884,0,0,0-7.615,8.783v7.09L3.372,21.679a1.269,1.269,0,0,0,.9,2.166H24.576A1.269,1.269,0,0,0,25.749,23.062ZM7.333,21.307l.372-.372a1.269,1.269,0,0,0,.372-.9V12.423a6.346,6.346,0,1,1,12.692,0v7.615a1.269,1.269,0,0,0,.372.9l.372.372Z" transform="translate(0 0)"/>
  </g>
</svg>
