<svg xmlns="http://www.w3.org/2000/svg" width="14.138" height="14.168" viewBox="0 0 14.138 14.168">
  <g id="phone-call_4_" data-name="phone-call(4)" transform="translate(-0.539)">
    <g id="Group_1116" data-name="Group 1116" transform="translate(0.539 0)">
      <path id="Path_3757" data-name="Path 3757" d="M14.307,10.4,12.329,8.421a1.315,1.315,0,0,0-2.189.494,1.346,1.346,0,0,1-1.553.847A6.1,6.1,0,0,1,4.915,6.09a1.28,1.28,0,0,1,.847-1.553,1.315,1.315,0,0,0,.494-2.189L4.279.371a1.41,1.41,0,0,0-1.907,0L1.031,1.712c-1.342,1.412.141,5.155,3.46,8.474s7.061,4.872,8.474,3.46L14.307,12.3A1.41,1.41,0,0,0,14.307,10.4Z" transform="translate(-0.539 0)" fill="#45a300"/>
    </g>
  </g>
</svg>
