<svg id="Group_4" data-name="Group 4" xmlns="http://www.w3.org/2000/svg" xmlns:xlink="http://www.w3.org/1999/xlink" width="167.764" height="167.764" viewBox="0 0 167.764 167.764">
  <defs>
    <clipPath id="clip-path">
      <rect id="Rectangle_9" data-name="Rectangle 9" width="167.764" height="167.764" fill="#9d9d9d"/>
    </clipPath>
  </defs>
  <g id="Group_3" data-name="Group 3" clip-path="url(#clip-path)">
    <path id="Path_8" data-name="Path 8" d="M167.764,83.882A83.882,83.882,0,1,1,83.882,0a83.882,83.882,0,0,1,83.882,83.882" fill="#9d9d9d"/>
    <path id="Path_9" data-name="Path 9" d="M166.6,97.82l-50.24-57.671L99.853,63.067,75.2,78.8,56,73.24l-2.291-1.774-3.164,2.669L32.87,118.043l39.106,48.876A83.922,83.922,0,0,0,166.6,97.82" fill="#707070"/>
    <path id="Path_10" data-name="Path 10" d="M127.852,86.415l-25.7-3.948A6.116,6.116,0,0,1,104,70.376l25.575,1.566c3.339.513,5.759,6.017,5.246,9.356a6.117,6.117,0,0,1-6.974,5.117" fill="#fff"/>
    <path id="Path_11" data-name="Path 11" d="M124.258,101.353l-25.219-5.27a6.059,6.059,0,1,1,2.479-11.862l25.821,4.49c3.276.684,4.774,4.674,4.09,7.95a6.06,6.06,0,0,1-7.171,4.692" fill="#fff"/>
    <path id="Path_12" data-name="Path 12" d="M120.674,116.2l-24.731-6.152A5.983,5.983,0,0,1,98.39,98.338l24.9,5.2a5.983,5.983,0,0,1,4.633,7.08c-.676,3.235-4.015,6.257-7.25,5.581" fill="#fff"/>
    <path id="Path_13" data-name="Path 13" d="M112.569,129.71,92.6,123.04a5.663,5.663,0,0,1,2.894-10.949l22.015,5.75a5.662,5.662,0,0,1,4.027,6.921h0c-.8,3.023-5.942,5.746-8.965,4.947" fill="#fff"/>
    <path id="Path_14" data-name="Path 14" d="M116.365,40.149h0c-.742-1.1-3.2-3.479-4.611-1.434l-.851,1.236A39.846,39.846,0,0,1,98.189,51.76c-4.066,2.378-8.375,4.883-9.136,5.272-.789.4-6.834,4.972-12.4,9.223C70.723,70.786,56,73.24,56,73.24V113.2h4.132A34.022,34.022,0,0,1,74.9,116.572l11,5.3a.964.964,0,0,0,1.283-1.3l-.033-.068a8.11,8.11,0,0,1-.776-4.079,8.237,8.237,0,0,1,5.127-7.08,8.238,8.238,0,0,1-1.837-8.613,8.091,8.091,0,0,1,2.371-3.4,8.438,8.438,0,0,1,2.254-1.372,8.4,8.4,0,0,1-1.521-2.17,8.092,8.092,0,0,1-.8-4.072,8.237,8.237,0,0,1,5.13-7.139,8.24,8.24,0,0,1-1.843-8.6,8.105,8.105,0,0,1,2.414-3.449,9.391,9.391,0,0,1,6.719-1.972l3.075.2,4.881-6.038a24.908,24.908,0,0,0,4.179-6.684l.669-1.584a16.228,16.228,0,0,0-.824-14.311" fill="#fff"/>
    <path id="Path_15" data-name="Path 15" d="M35.527,118.044H51.055a2.658,2.658,0,0,0,2.658-2.657V71.467a2.658,2.658,0,0,0-2.658-2.658H35.527a2.657,2.657,0,0,0-2.657,2.658v43.92a2.657,2.657,0,0,0,2.657,2.657" fill="#fff"/>
  </g>
</svg>
