<svg xmlns="http://www.w3.org/2000/svg" width="25.809" height="25.809" viewBox="0 0 25.809 25.809">
  <g id="Group_788" data-name="Group 788" transform="translate(0)">
    <g id="Group_787" data-name="Group 787" transform="translate(0)">
      <path id="Path_3704" data-name="Path 3704" d="M22.029,16.684a12.855,12.855,0,0,0-4.9-3.076,7.46,7.46,0,1,0-8.442,0A12.925,12.925,0,0,0,0,25.809H2.016a10.888,10.888,0,1,1,21.776,0h2.016A12.82,12.82,0,0,0,22.029,16.684ZM12.9,12.9A5.444,5.444,0,1,1,18.348,7.46,5.45,5.45,0,0,1,12.9,12.9Z" transform="translate(0)" fill="currentColor"/>
    </g>
  </g>
</svg>
