<svg xmlns="http://www.w3.org/2000/svg" width="19.7" height="20.577" viewBox="0 0 19.7 20.577">
  <g id="user_1_" data-name="user (1)" transform="translate(-10.978 0.35)">
    <g id="Group_876" data-name="Group 876" transform="translate(11.328 9.964)">
      <g id="Group_875" data-name="Group 875" transform="translate(0)">
        <path id="Path_3726" data-name="Path 3726" d="M20.828,257.323a9.511,9.511,0,0,0-9.5,9.5.413.413,0,0,0,.826,0,8.674,8.674,0,1,1,17.348,0,.413.413,0,0,0,.826,0A9.51,9.51,0,0,0,20.828,257.323Z" transform="translate(-11.328 -257.323)" stroke="#000" stroke-width="0.7"/>
      </g>
    </g>
    <g id="Group_878" data-name="Group 878" transform="translate(16.285)">
      <g id="Group_877" data-name="Group 877" transform="translate(0)">
        <path id="Path_3727" data-name="Path 3727" d="M143.871,0a4.543,4.543,0,1,0,4.543,4.543A4.549,4.549,0,0,0,143.871,0Zm0,8.261a3.717,3.717,0,1,1,3.717-3.717A3.722,3.722,0,0,1,143.871,8.261Z" transform="translate(-139.328)" stroke="#000" stroke-width="0.7"/>
      </g>
    </g>
  </g>
</svg>
