<svg id="Group_1076" data-name="Group 1076" xmlns="http://www.w3.org/2000/svg" width="168" height="168" viewBox="0 0 168 168">
  <g id="Group_1078" data-name="Group 1078">
    <g id="Group_1077" data-name="Group 1077">
      <g id="Group_1076-2" data-name="Group 1076">
        <circle id="Ellipse_104" data-name="Ellipse 104" cx="84" cy="84" r="84" fill="#45a300"/>
      </g>
    </g>
  </g>
  <path id="Path_3761" data-name="Path 3761" d="M161.539,117.123,123.367,153.91l27.157,51.059a78.111,78.111,0,0,0,56.6-60.886Z" transform="translate(-41.605 -40.735)" fill="#2f7100"/>
  <g id="layer1" transform="translate(-67.08 -20.486)">
    <path id="path19501" d="M116.266,72.338a2.938,2.938,0,0,0-2.934,2.9v41.129a11.507,11.507,0,0,0,2.039,7.053,8.975,8.975,0,0,0,7.241,3.354h52.971c6.022,0,11.245-4.513,11.245-10.408V90.189c0-5.894-5.224-10.408-11.245-10.408H124.577c-3.16,0-5.378-2.174-5.378-4.54a2.938,2.938,0,0,0-2.934-2.9Zm33.82,15.032a15.915,15.915,0,1,1-15.915,15.915A15.915,15.915,0,0,1,150.085,87.37Z" transform="translate(0 6.503)" fill="#fff"/>
    <g id="Group_1125" data-name="Group 1125" transform="translate(113.332 71.322)">
      <path id="path19498" d="M124.579,71.322c-6.017,0-11.247,4.529-11.247,10.423s5.23,10.409,11.247,10.409a2.935,2.935,0,0,0,0-5.869c-3.16,0-5.378-2.173-5.378-4.539s2.218-4.539,5.378-4.539H169a3.6,3.6,0,0,1,3.643,3.643v8.37a2.935,2.935,0,0,0,5.869,0v-8.37A9.568,9.568,0,0,0,169,71.322Z" transform="translate(-113.332 -71.322)" fill="#fff"/>
      <path id="path19504" d="M124.651,93.55,117.8,86.684a2.691,2.691,0,1,1,3.806-3.8l2.253,2.253v-7.2a2.68,2.68,0,0,1,2.7-2.7,2.714,2.714,0,0,1,2.693,2.7v7.2L131.387,83a2.7,2.7,0,1,1,3.935,3.688l-6.95,6.937a2.7,2.7,0,0,1-1.813.709,2.653,2.653,0,0,1-1.909-.78Z" transform="translate(-89.807 -46.312)" fill="#fff"/>
    </g>
  </g>
</svg>
