<svg xmlns="http://www.w3.org/2000/svg" width="25" height="24.401" viewBox="0 0 25 24.401">
  <g id="working-hours" transform="translate(-760.361 -750.72)">
    <path id="Path_3747" data-name="Path 3747" d="M761.961,761.72a9.4,9.4,0,0,1,18.8,0c0,.107,0,.215-.006.323a.966.966,0,0,1,.606.877v1.4h.691a11,11,0,1,0-11.091,8.392v-1.6a9.411,9.411,0,0,1-9-9.391Z" fill="currentColor"/>
    <path id="Path_3748" data-name="Path 3748" d="M1939.522,2682.29h-.6v1.2a.4.4,0,0,1-.4.4h-2a.4.4,0,0,1-.4-.4v-1.2h-3.2v1.2a.4.4,0,0,1-.4.4h-2a.4.4,0,0,1-.4-.4v-1.2h-.6a2.59,2.59,0,0,1-1.8-.744v4.758a.787.787,0,0,0,.786.786h12.028a.787.787,0,0,0,.786-.786v-4.758A2.589,2.589,0,0,1,1939.522,2682.29Z" transform="translate(-1155.961 -1911.97)" fill="currentColor"/>
    <path id="Path_3749" data-name="Path 3749" d="M2422.842,1979.521h-3.2c-.189,0-.4.082-.4.2v1.4h4v-1.4C2423.242,1979.6,2423.031,1979.521,2422.842,1979.521Z" transform="translate(-1642.681 -1216.801)" fill="currentColor"/>
    <path id="Path_3750" data-name="Path 3750" d="M2869.8,2634.881h1.2v2h-1.2Z" transform="translate(-2088.841 -1865.76)" fill="currentColor"/>
    <path id="Path_3751" data-name="Path 3751" d="M1928.508,2225.281a.787.787,0,0,0-.786.786v1.814a1.824,1.824,0,0,0,1.8,1.8h.6v-.8a.4.4,0,0,1,.4-.4h2a.4.4,0,0,1,.4.4v.8h3.2v-.8a.4.4,0,0,1,.4-.4h2a.4.4,0,0,1,.4.4v.8h.6a1.824,1.824,0,0,0,1.8-1.8v-1.814a.787.787,0,0,0-.786-.786Z" transform="translate(-1155.961 -1460.161)" fill="currentColor"/>
    <path id="Path_3752" data-name="Path 3752" d="M1019.122,1006.28a1.089,1.089,0,0,1,1.2-1h3c0-.067,0-.133,0-.2a8.6,8.6,0,1,0-9,8.591v-4.59a1.354,1.354,0,0,1,1.4-1.4h3.4Zm-4-1.2c0,.013,0,.026,0,.039s0,.012,0,.017,0,.014,0,.021,0,.013,0,.02,0,.012,0,.018l-.007.019-.007.018-.008.017-.009.018-.01.016-.011.017-.013.017-.01.014-.027.029-3.9,3.9a.4.4,0,0,1-.566-.566l3.783-3.783V999.28a.4.4,0,0,1,.8,0v5.8Z" transform="translate(-243.361 -243.36)" fill="currentColor"/>
    <path id="Path_3753" data-name="Path 3753" d="M2256.6,2634.881h-1.2v.8h0v1.2h1.2Z" transform="translate(-1480.441 -1865.76)" fill="currentColor"/>
  </g>
</svg>
